<?xml version="1.0" encoding="utf-8"?>
<!-- Generator: Adobe Illustrator 19.2.0, SVG Export Plug-In . SVG Version: 6.00 Build 0)  -->
<svg version="1.1" id="Camada_1" xmlns="http://www.w3.org/2000/svg" xmlns:xlink="http://www.w3.org/1999/xlink" x="0px" y="0px"
	 viewBox="0 0 60 60" style="enable-background:new 0 0 60 60;" xml:space="preserve">
<style type="text/css">
	.st0{clip-path:url(#SVGID_2_);fill:#FFFFFF;}
</style>
<g>
	<defs>
		<rect id="SVGID_1_" x="3.7" y="3.7" width="52.7" height="52.7"/>
	</defs>
	<clipPath id="SVGID_2_">
		<use xlink:href="#SVGID_1_"  style="overflow:visible;"/>
	</clipPath>
	<path class="st0" d="M30,3.7c-7.2,0-8.1,0-10.9,0.2c-2.8,0.1-4.7,0.6-6.4,1.2c-1.7,0.7-3.2,1.6-4.7,3C6.6,9.5,5.7,11,5,12.7
		c-0.7,1.7-1.1,3.6-1.2,6.4C3.7,21.9,3.7,22.8,3.7,30c0,7.2,0,8.1,0.2,10.9c0.1,2.8,0.6,4.7,1.2,6.4c0.7,1.7,1.6,3.2,3,4.7
		c1.5,1.5,2.9,2.4,4.7,3c1.7,0.7,3.6,1.1,6.4,1.2c2.8,0.1,3.7,0.2,10.9,0.2s8.1,0,10.9-0.2c2.8-0.1,4.7-0.6,6.4-1.2
		c1.7-0.7,3.2-1.6,4.7-3c1.5-1.5,2.4-2.9,3-4.7c0.7-1.7,1.1-3.6,1.2-6.4c0.1-2.8,0.2-3.7,0.2-10.9c0-7.2,0-8.1-0.2-10.9
		c-0.1-2.8-0.6-4.7-1.2-6.4c-0.7-1.7-1.6-3.2-3-4.7c-1.5-1.5-2.9-2.4-4.7-3c-1.7-0.7-3.6-1.1-6.4-1.2C38.1,3.7,37.2,3.7,30,3.7
		 M30,8.4c7,0,7.9,0,10.6,0.2c2.6,0.1,4,0.5,4.9,0.9c1.2,0.5,2.1,1,3,2c0.9,0.9,1.5,1.8,2,3c0.4,0.9,0.8,2.3,0.9,4.9
		c0.1,2.8,0.2,3.6,0.2,10.6s0,7.9-0.2,10.6c-0.1,2.6-0.5,4-0.9,4.9c-0.5,1.2-1,2.1-2,3c-0.9,0.9-1.8,1.5-3,2
		c-0.9,0.4-2.3,0.8-4.9,0.9c-2.8,0.1-3.6,0.2-10.6,0.2s-7.9,0-10.6-0.2c-2.6-0.1-4-0.5-4.9-0.9c-1.2-0.5-2.1-1-3-2
		c-0.9-0.9-1.5-1.8-2-3c-0.4-0.9-0.8-2.3-0.9-4.9C8.4,37.9,8.4,37,8.4,30s0-7.9,0.2-10.6c0.1-2.6,0.5-4,0.9-4.9c0.5-1.2,1-2.1,2-3
		c0.9-0.9,1.8-1.5,3-2c0.9-0.4,2.3-0.8,4.9-0.9C22.1,8.4,23,8.4,30,8.4"/>
	<path class="st0" d="M30,38.8c-4.9,0-8.8-3.9-8.8-8.8c0-4.8,3.9-8.8,8.8-8.8c4.8,0,8.8,3.9,8.8,8.8C38.8,34.9,34.8,38.8,30,38.8
		 M30,16.5c-7.5,0-13.5,6.1-13.5,13.5c0,7.5,6.1,13.5,13.5,13.5S43.5,37.5,43.5,30C43.5,22.5,37.5,16.5,30,16.5"/>
	<path class="st0" d="M47.2,15.9c0,1.7-1.4,3.2-3.2,3.2c-1.7,0-3.2-1.4-3.2-3.2c0-1.7,1.4-3.2,3.2-3.2
		C45.8,12.8,47.2,14.2,47.2,15.9"/>
</g>
</svg>
