<?xml version="1.0" encoding="utf-8"?>
<!-- Generator: Adobe Illustrator 19.2.0, SVG Export Plug-In . SVG Version: 6.00 Build 0)  -->
<svg version="1.1" id="Camada_1" xmlns="http://www.w3.org/2000/svg" xmlns:xlink="http://www.w3.org/1999/xlink" x="0px" y="0px"
	 viewBox="0 0 300 300" style="enable-background:new 0 0 300 300;" xml:space="preserve">
<style type="text/css">
	.st0{fill:#FFFFFF;}
</style>
<g>
	<path class="st0" d="M62.2,64H283V41H62.2C56.5,41,51,37.3,50,31.9V9H18v248h32v-13.2c1-5.4,6.5-9.8,12.2-9.8H283v-23H62.2
		c-5.7,0-11.2-3.7-12.2-9.1V73.8C51,68.4,56.5,64,62.2,64z"/>
	<g>
		<path class="st0" d="M134.4,144.7v6.3c0,7.6-3.8,11.9-11.1,11.9c-7.3,0-11.1-4.3-11.1-11.9v-24.6c0-7.6,3.8-11.9,11.1-11.9
			c7.3,0,11.1,4.3,11.1,11.9v4.6h-7v-5.1c0-3.4-1.5-4.7-3.9-4.7s-3.9,1.3-3.9,4.7v25.6c0,3.4,1.5,4.6,3.9,4.6s3.9-1.2,3.9-4.6v-6.8
			H134.4z"/>
		<path class="st0" d="M138.9,115h7.4v47.4h-7.4V115z"/>
		<path class="st0" d="M158.4,128.1v34.3h-6.7V115h9.3l7.7,28.4V115h6.6v47.4h-7.7L158.4,128.1z"/>
		<path class="st0" d="M188.1,135h10.2v6.8h-10.2v13.9H201v6.8h-20.3V115H201v6.8h-12.9V135z M198.7,105l-6.9,7.5h-5l4.6-7.5H198.7z
			"/>
		<path class="st0" d="M203.4,115h23v6.8h-7.8v40.6h-7.4v-40.6h-7.8V115z"/>
		<path class="st0" d="M229.7,115h7.4v47.4h-7.4V115z"/>
		<path class="st0" d="M264.1,144.7v6.3c0,7.6-3.8,11.9-11.1,11.9s-11.1-4.3-11.1-11.9v-24.6c0-7.6,3.8-11.9,11.1-11.9
			s11.1,4.3,11.1,11.9v4.6h-7v-5.1c0-3.4-1.5-4.7-3.9-4.7c-2.4,0-3.9,1.3-3.9,4.7v25.6c0,3.4,1.5,4.6,3.9,4.6c2.4,0,3.9-1.2,3.9-4.6
			v-6.8H264.1z"/>
		<path class="st0" d="M282.4,147.4h-6.6l3.6-24l3,20.3v-28.1c0-0.2,0-0.3,0.1-0.5h-8.2l-7.6,47.4h6.8l1.3-8.6h7.6V147.4z"/>
	</g>
	<g>
		<path class="st0" d="M94.3,281.2v3.5c0,4.3-2.1,6.7-6.2,6.7c-4.1,0-6.2-2.4-6.2-6.7v-13.8c0-4.3,2.1-6.7,6.2-6.7
			c4.1,0,6.2,2.4,6.2,6.7v2.6h-4v-2.8c0-1.9-0.8-2.6-2.2-2.6c-1.3,0-2.2,0.7-2.2,2.6V285c0,1.9,0.8,2.6,2.2,2.6
			c1.3,0,2.2-0.7,2.2-2.6v-3.8H94.3z"/>
		<path class="st0" d="M96.9,264.5h4.2v26.6h-4.2V264.5z"/>
		<path class="st0" d="M107.9,271.8L107.9,271.8l-0.1,19.3H104v-26.6h5.2l4.2,15.9h0.1v-15.9h3.7v26.6H113L107.9,271.8z"/>
		<path class="st0" d="M124.5,275.7h5.7v3.8h-5.7v7.8h7.2v3.8h-11.4v-26.6h11.4v3.8h-7.2V275.7z"/>
		<path class="st0" d="M143.1,283.4L143.1,283.4l2.9-18.9h5.8v26.6h-4V272h-0.1l-2.8,19.1h-4l-3-18.8h-0.1v18.8h-3.6v-26.6h5.8
			L143.1,283.4z"/>
		<path class="st0" d="M168.4,291.1h-4.2l-0.7-4.8h-5.1l-0.7,4.8h-3.8l4.3-26.6h6.1L168.4,291.1z M158.8,282.7h4l-2-13.5h-0.1
			L158.8,282.7z"/>
		<path class="st0" d="M180.4,275.7h5.7v3.8h-5.7v7.8h7.2v3.8h-11.4v-26.6h11.4v3.8h-7.2V275.7z"/>
		<path class="st0" d="M208.2,281.2v3.5c0,4.3-2.1,6.7-6.2,6.7s-6.2-2.4-6.2-6.7v-13.8c0-4.3,2.1-6.7,6.2-6.7s6.2,2.4,6.2,6.7v2.6
			h-4v-2.8c0-1.9-0.8-2.6-2.2-2.6s-2.2,0.7-2.2,2.6V285c0,1.9,0.8,2.6,2.2,2.6s2.2-0.7,2.2-2.6v-3.8H208.2z"/>
		<path class="st0" d="M219.5,291.1c-0.2-0.7-0.4-1.1-0.4-3.3v-4.2c0-2.5-0.8-3.4-2.7-3.4h-1.4v10.8h-4.2v-26.6h6.3
			c4.3,0,6.2,2,6.2,6.1v2.1c0,2.7-0.9,4.5-2.7,5.4v0.1c2.1,0.9,2.8,2.8,2.8,5.6v4.1c0,1.3,0,2.2,0.5,3.2H219.5z M214.9,268.3v8.2
			h1.6c1.6,0,2.5-0.7,2.5-2.8V271c0-1.9-0.6-2.7-2.1-2.7H214.9z"/>
		<path class="st0" d="M232.6,258.9l-3.9,4.2h-2.8l2.6-4.2H232.6z M226,264.5h4.2v26.6H226V264.5z"/>
		<path class="st0" d="M232,264.5h12.9v3.8h-4.4v22.8h-4.2v-22.8H232V264.5z"/>
		<path class="st0" d="M246.8,264.5h4.2v26.6h-4.2V264.5z"/>
		<path class="st0" d="M266.1,281.2v3.5c0,4.3-2.1,6.7-6.2,6.7s-6.2-2.4-6.2-6.7v-13.8c0-4.3,2.1-6.7,6.2-6.7s6.2,2.4,6.2,6.7v2.6
			h-4v-2.8c0-1.9-0.8-2.6-2.2-2.6s-2.2,0.7-2.2,2.6V285c0,1.9,0.8,2.6,2.2,2.6s2.2-0.7,2.2-2.6v-3.8H266.1z"/>
		<path class="st0" d="M282.2,291.1H278l-0.7-4.8h-5.1l-0.7,4.8h-3.8l4.3-26.6h6.1L282.2,291.1z M272.6,282.7h4l-2-13.5h-0.1
			L272.6,282.7z"/>
	</g>
</g>
</svg>
