<?xml version="1.0" encoding="utf-8"?>
<!-- Generator: Adobe Illustrator 19.2.0, SVG Export Plug-In . SVG Version: 6.00 Build 0)  -->
<svg version="1.1" id="Camada_1" xmlns="http://www.w3.org/2000/svg" xmlns:xlink="http://www.w3.org/1999/xlink" x="0px" y="0px"
	 viewBox="0 0 113.4 113.4" style="enable-background:new 0 0 113.4 113.4;" xml:space="preserve">
<style type="text/css">
	.st0{fill:#FFFFFF;}
</style>
<title>Magnifying Glass</title>
<g>
	<path class="st0" d="M42.2,38.3c-2.6,1.7-4.5,4.2-5.4,7.1c-0.3,1,0.2,2,1.2,2.3l0,0c0.2,0.1,0.4,0.1,0.6,0.1c0.8,0,1.5-0.5,1.8-1.3
		c0.7-2.1,2-3.9,3.9-5.1c0.9-0.5,1.2-1.7,0.6-2.6C44.3,38,43.2,37.7,42.2,38.3C42.3,38.2,42.3,38.3,42.2,38.3z"/>
	<path class="st0" d="M84.1,75.9L73,64.7c-0.7-0.7-1.9-0.7-2.6,0l-1.5,1.5L65,62.4c7.3-8.7,6.1-21.7-2.6-28.9s-21.7-6.1-28.9,2.6
		S27.4,57.8,36.1,65c7.6,6.3,18.7,6.3,26.3,0l3.8,3.8l-1.5,1.5c-0.7,0.7-0.7,1.9,0,2.6l11.2,11.2c0.7,0.7,1.9,0.7,2.6,0l5.6-5.6
		C84.9,77.8,84.9,76.6,84.1,75.9z M49.3,66c-9.3,0-16.8-7.5-16.8-16.8S40,32.5,49.3,32.5S66,40,66,49.3C66,58.5,58.5,66,49.3,66z
		 M77.2,80.2l-8.6-8.6l3-3l8.6,8.6L77.2,80.2z"/>
</g>
</svg>
