<?xml version="1.0" encoding="utf-8"?>
<!-- Generator: Adobe Illustrator 19.2.0, SVG Export Plug-In . SVG Version: 6.00 Build 0)  -->
<svg version="1.1" id="Camada_1" xmlns="http://www.w3.org/2000/svg" xmlns:xlink="http://www.w3.org/1999/xlink" x="0px" y="0px"
	 viewBox="0 0 60 60" style="enable-background:new 0 0 60 60;" xml:space="preserve">
<style type="text/css">
	.st0{fill:#FFFFFF;}
</style>
<g>
	<path class="st0" d="M15.9,12.1c-2.5,1.6-4.4,4.1-5.3,6.9c-0.3,1,0.2,2,1.2,2.3c0,0,0,0,0,0c0.2,0.1,0.4,0.1,0.5,0.1
		c0.8,0,1.5-0.5,1.7-1.3c0.6-2,2-3.8,3.8-4.9c0.9-0.5,1.1-1.6,0.6-2.5C18,11.8,16.9,11.5,15.9,12.1C16,12.1,16,12.1,15.9,12.1z"/>
	<path class="st0" d="M56.7,48.7L45.8,37.8c-0.7-0.7-1.9-0.7-2.6,0l-1.4,1.4l-3.7-3.7c7.1-8.5,5.9-21-2.6-28.1S14.5,1.5,7.4,10
		S1.5,31,10,38.1c7.4,6.2,18.1,6.2,25.5,0l3.7,3.7l-1.4,1.4c-0.7,0.7-0.7,1.9,0,2.6l10.9,10.9c0.7,0.7,1.9,0.7,2.6,0l5.4-5.4
		C57.4,50.5,57.4,49.4,56.7,48.7z M22.8,39.1c-9,0-16.3-7.3-16.3-16.3S13.8,6.5,22.8,6.5s16.3,7.3,16.3,16.3
		C39.1,31.8,31.8,39.1,22.8,39.1z M49.9,52.8l-8.3-8.3l2.9-2.9l8.3,8.3L49.9,52.8z"/>
</g>
</svg>
