<?xml version="1.0" encoding="utf-8"?>
<!-- Generator: Adobe Illustrator 19.2.0, SVG Export Plug-In . SVG Version: 6.00 Build 0)  -->
<svg version="1.1" id="Camada_1" xmlns="http://www.w3.org/2000/svg" xmlns:xlink="http://www.w3.org/1999/xlink" x="0px" y="0px"
	 viewBox="0 0 60 60" style="enable-background:new 0 0 60 60;" xml:space="preserve">
<style type="text/css">
	.st0{fill:#FFFFFF;}
</style>
<g>
	<path class="st0" d="M57.2,13.2c-2,0.9-4.2,1.5-6.4,1.8c2.3-1.4,4.1-3.5,4.9-6.1c-2.2,1.3-4.5,2.2-7.1,2.7c-2-2.2-5-3.5-8.1-3.5
		c-6.2,0-11.1,5-11.1,11.1c0,0.9,0.1,1.7,0.3,2.5C20.3,21.2,12.1,16.7,6.6,10c-1,1.7-1.5,3.6-1.5,5.6c0,3.9,2,7.3,4.9,9.2
		c-1.8,0-3.4-0.5-5-1.4v0.1c0,5.4,3.9,9.9,8.9,10.9C13,34.8,12,34.9,11,34.9c-0.7,0-1.4,0-2.1-0.2c1.4,4.4,5.5,7.6,10.4,7.8
		c-3.8,3-8.6,4.7-13.8,4.7c-0.9,0-1.8,0-2.7-0.2c4.9,3.2,10.8,5,17.1,5c20.5,0,31.7-17,31.7-31.7c0-0.5,0-1,0-1.4
		C53.8,17.4,55.6,15.4,57.2,13.2L57.2,13.2z"/>
</g>
</svg>
