<?xml version="1.0" encoding="utf-8"?>
<!-- Generator: Adobe Illustrator 19.2.0, SVG Export Plug-In . SVG Version: 6.00 Build 0)  -->
<svg version="1.1" id="Camada_1" xmlns="http://www.w3.org/2000/svg" xmlns:xlink="http://www.w3.org/1999/xlink" x="0px" y="0px"
	 viewBox="0 0 113.4 113.4" style="enable-background:new 0 0 113.4 113.4;" xml:space="preserve">
<style type="text/css">
	.st0{fill:#FFFFFF;}
</style>
<title>Magnifying Glass</title>
<path class="st0" d="M61.2,28.3c-0.4,0-0.8,0-1.3,0.1c-0.9,0.1-1.8,0.4-2.5,1.1l-28,28c-1.4,1.4-1.4,3.7,0,5.1L50.8,84
	c1.4,1.4,3.7,1.4,5.1,0l28-28c0.7-0.7,1-1.7,1.1-2.5s0.1-1.7,0.1-2.5V32.6c0-2.4-1.9-4.3-4.3-4.3H62.4C62,28.3,61.6,28.3,61.2,28.3z
	 M61.2,30.8c0.4,0,0.8,0,1.2,0h18.4c1,0,1.9,0.8,1.9,1.9V51c0,0.9,0,1.6-0.1,2.2c-0.1,0.6-0.2,0.8-0.4,1l-28,28.1
	c-0.4,0.4-1.1,0.4-1.6,0l-0.2-0.2L31.1,60.9c-0.4-0.4-0.4-1.1,0-1.6l28.1-28c0.2-0.2,0.5-0.3,1.1-0.4C60.5,30.8,60.8,30.8,61.2,30.8
	z M74,34.5c-2.7,0-4.9,2.2-4.9,4.9s2.2,4.9,4.9,4.9c2.7,0,4.9-2.2,4.9-4.9S76.7,34.5,74,34.5z M74,37c1.4,0,2.5,1.1,2.5,2.5
	S75.4,42,74,42s-2.5-1.1-2.5-2.5S72.6,37,74,37z"/>
</svg>
